# xmcd
#
# Track frame offsets:
#	150
#	16069
#	33898
#	63370
#
# Disc length: 1050 seconds
#
# Revision: 1
# Processed by: cddbd v1.5.2PL0 Copyright (c) Steve Scherf et al.
# Submitted via: audiograbber 1.83.01
#
DISCID=23041804
DTITLE=Anastacia - Sick and tired (Maxi)
DYEAR=2004
DGENRE=Pop
TTITLE0=Sick and tired
TTITLE1=Twisted girl
TTITLE2=Sick and tired (Jason Nevins Electro Chill Extended Remix)
TTITLE3=Sick and tired ( Jason Nevins Funkrock Edit Remix)
EXTD=
EXTT0=
EXTT1=
EXTT2=
EXTT3=
PLAYORDER=
